<svg className="course-logo" version="1.0" xmlns="http://www.w3.org/2000/svg" viewBox="0 0 1024.000000 1024.000000" preserveAspectRatio="xMidYMid meet">
    <g transform="translate(0.000000,1024.000000) scale(0.100000,-0.100000)"
    stroke="none">
        <path d="M4755 9894 c-474 -38 -877 -118 -1289 -255 -1271 -423 -2327 -1341
            -2892 -2514 -224 -465 -363 -946 -430 -1480 -22 -175 -30 -687 -15 -882 70
            -872 377 -1696 894 -2398 381 -517 846 -942 1408 -1287 583 -359 1265 -602
            1959 -697 274 -37 401 -45 720 -45 319 0 446 8 720 45 1378 189 2614 929 3407
            2039 608 852 905 1847 862 2890 -38 944 -357 1837 -927 2595 -208 276 -541
            627 -793 833 -781 641 -1681 1019 -2710 1138 -128 15 -790 28 -914 18z m775
            -389 c1042 -124 1950 -628 2574 -1429 416 -534 669 -1169 736 -1851 14 -142
            14 -499 0 -645 -122 -1240 -877 -2322 -2020 -2895 -604 -303 -1318 -445 -1984
            -394 -673 50 -1278 251 -1826 607 -415 269 -800 648 -1066 1049 -306 464 -479
            917 -566 1488 -20 133 -23 187 -23 470 0 283 3 337 23 470 81 531 234 953 504
            1393 150 243 338 473 579 707 438 426 989 740 1594 910 257 71 508 115 810
            139 108 8 536 -3 665 -19z"/>
        <path d="M4875 9360 c-1066 -62 -2022 -580 -2613 -1414 -570 -805 -715 -1813
            -394 -2746 79 -230 200 -470 347 -690 344 -516 842 -931 1425 -1188 338 -149
            666 -236 1065 -284 145 -17 616 -17 755 0 825 102 1502 415 2054 951 507 493
            820 1101 922 1791 22 145 30 526 15 687 -82 874 -529 1657 -1259 2205 -180
            136 -289 203 -507 313 -256 129 -464 207 -731 275 -329 82 -735 120 -1079 100z
            m570 -281 c974 -138 1764 -780 2058 -1671 74 -221 107 -441 107 -700 0 -363
            -73 -675 -235 -1003 -374 -759 -1120 -1268 -2011 -1371 -171 -20 -523 -14
            -684 11 -940 146 -1713 760 -2015 1600 -271 750 -124 1587 388 2220 84 104
            279 296 387 381 399 315 911 513 1432 554 156 12 406 3 573 -21z"/>
        <path d="M4815 8944 c-336 -45 -667 -184 -947 -395 -106 -80 -296 -270 -375
            -374 -279 -371 -417 -782 -416 -1245 1 -278 43 -506 139 -750 347 -876 1249
            -1396 2178 -1255 479 72 929 324 1236 692 674 807 633 1982 -94 2732 -117 120
            -213 200 -346 287 -248 162 -541 271 -833 309 -143 18 -404 18 -542 -1z m455
            -254 c114 -32 265 -111 356 -185 178 -148 286 -317 351 -551 25 -90 28 -115
            28 -264 0 -149 -3 -175 -28 -265 -54 -196 -151 -360 -294 -495 -292 -277 -694
            -346 -1057 -181 -191 86 -378 271 -477 472 -218 438 -101 984 275 1285 125
            100 292 177 438 203 90 17 322 6 408 -19z"/>
    </g>
</svg>