<svg class="course-logo" version="1.0" xmlns="http://www.w3.org/2000/svg" viewBox="0 0 200.000000 200.000000" preserveAspectRatio="xMidYMid meet">
    <g transform="translate(0.000000,200.000000) scale(0.100000,-0.100000)" stroke="none">
        <path d="M371 1930 c-19 -5 -46 -21 -61 -37 -14 -15 -34 -33 -45 -39 -11 -6
        -26 -25 -34 -42 -8 -18 -20 -32 -27 -32 -7 0 -16 -31 -23 -79 -15 -101 4 -381
        26 -381 9 0 13 -18 13 -65 0 -51 -3 -65 -15 -65 -8 0 -15 -9 -15 -19 0 -30
        -11 -51 -26 -51 -8 0 -14 -4 -14 -10 0 -5 -20 -10 -45 -10 -25 0 -45 -4 -45
        -10 0 -5 -6 -10 -14 -10 -24 0 -29 -18 -21 -86 5 -53 10 -64 25 -64 10 0 21 8
        23 18 4 13 5 11 6 -5 1 -19 7 -23 35 -23 52 0 66 -9 66 -41 0 -22 6 -32 25
        -39 25 -9 25 -11 21 -92 -2 -46 -5 -102 -5 -125 -1 -29 -5 -43 -15 -43 -9 0
        -15 -22 -20 -79 -8 -100 2 -191 20 -191 8 0 14 -10 14 -21 0 -29 33 -81 66
        -105 14 -10 33 -25 41 -33 19 -18 82 -30 166 -31 l67 0 0 60 0 60 -45 0 c-25
        0 -45 5 -45 10 0 6 -9 10 -20 10 -11 0 -20 5 -20 10 0 6 -9 10 -20 10 -16 0
        -20 7 -20 30 0 17 -4 30 -10 30 -6 0 -10 40 -10 100 0 69 -4 100 -12 100 -6 0
        -2 8 9 18 17 15 21 34 26 144 5 105 4 130 -8 142 -8 8 -15 24 -15 35 0 12 -6
        21 -15 21 -10 0 -15 10 -15 30 0 17 -4 30 -9 30 -5 0 -11 9 -14 20 -4 15 -14
        20 -44 21 -21 0 -32 3 -25 6 6 2 12 11 12 19 0 8 7 14 15 14 8 0 15 4 15 9 0
        5 10 11 22 13 15 2 25 13 32 35 5 18 16 35 26 38 14 4 18 22 23 89 6 92 -1
        196 -14 196 -5 0 -9 58 -9 129 0 115 -2 130 -17 134 -17 4 -17 5 0 6 10 1 17
        9 17 21 0 26 39 70 62 70 10 0 18 5 18 10 0 6 25 10 55 10 l55 0 0 70 0 70
        -77 -1 c-43 -1 -93 -5 -112 -9z"/>
        <path d="M1430 1860 l0 -60 50 0 c28 0 50 -4 50 -9 0 -5 14 -11 30 -15 19 -3
        34 -15 42 -31 6 -14 15 -25 20 -25 4 0 8 -7 8 -15 0 -8 5 -15 10 -15 6 0 10
        -40 10 -100 0 -60 -4 -100 -10 -100 -5 0 -10 -20 -10 -45 0 -25 -4 -45 -10
        -45 -6 0 -10 -43 -10 -110 0 -67 4 -110 10 -110 6 0 10 -9 10 -20 0 -11 4 -20
        8 -20 5 0 16 -16 25 -36 13 -26 29 -40 58 -52 47 -18 49 -42 3 -57 -41 -13
        -64 -33 -64 -57 0 -10 -7 -21 -15 -24 -8 -4 -15 -15 -15 -25 0 -10 -4 -19 -10
        -19 -6 0 -10 -45 -10 -115 0 -70 4 -115 10 -115 6 0 10 -20 10 -45 0 -25 5
        -45 10 -45 6 0 10 -38 10 -95 0 -57 -4 -95 -10 -95 -5 0 -10 -9 -10 -20 0 -11
        -3 -20 -8 -20 -4 0 -13 -13 -20 -30 -15 -33 -58 -50 -129 -50 l-43 0 0 -60 0
        -60 68 0 c94 1 149 15 184 50 16 17 33 30 38 30 18 0 50 69 56 123 5 38 11 57
        20 57 10 0 14 14 14 50 0 35 -4 50 -13 50 -10 0 -17 35 -25 138 -20 231 -14
        278 38 300 16 8 30 20 30 27 0 8 19 16 50 20 l50 7 0 48 c0 50 -10 59 -63 60
        -10 0 -29 11 -43 25 -14 14 -31 25 -39 25 -25 0 -38 68 -31 169 16 248 19 271
        32 271 10 0 14 15 14 55 0 38 -4 55 -13 55 -8 0 -18 23 -25 59 -7 35 -21 66
        -35 79 -72 70 -90 83 -129 92 -24 5 -73 10 -110 10 l-68 0 0 -60z"/>
        <path d="M533 1418 l-23 -11 0 -324 c0 -209 4 -323 10 -323 6 0 10 -11 10 -25
        0 -14 4 -25 8 -25 5 0 14 -16 22 -35 8 -19 18 -35 22 -35 5 0 23 -15 40 -33
        l32 -32 199 -3 c254 -5 237 -18 237 181 l0 144 138 5 c134 5 182 16 182 43 0
        6 20 24 45 39 26 17 45 36 45 47 0 10 5 21 10 24 5 3 10 41 10 84 0 97 -23
        175 -56 189 -13 6 -30 24 -38 40 -22 43 -68 52 -267 52 -163 0 -176 -1 -192
        -20 -15 -18 -17 -53 -17 -356 l0 -336 -139 4 c-77 2 -143 7 -148 11 -4 5 -9
        160 -11 345 -2 301 -4 338 -19 350 -20 15 -70 15 -100 0z m800 -141 c15 -12
        27 -28 27 -34 0 -6 7 -13 15 -17 8 -3 15 -12 15 -21 0 -8 5 -15 10 -15 6 0 10
        -11 10 -25 0 -14 -4 -25 -10 -25 -5 0 -13 -12 -16 -27 -9 -37 -49 -73 -80 -73
        -15 0 -24 -6 -24 -15 0 -12 -17 -15 -95 -15 l-95 0 0 145 0 145 108 0 c99 0
        111 -2 135 -23z"/>
    </g>
</svg>