<svg className="course-logo" version="1.0" xmlns="http://www.w3.org/2000/svg" viewBox="0 0 501.000000 299.000000" preserveAspectRatio="xMidYMid meet">
    <g transform="translate(0.000000,299.000000) scale(0.100000,-0.100000)" stroke="none">
        <path d="M539 2956 c-2 -2 -3 -162 -1 -355 l3 -351 114 0 115 0 0 -185 0 -185
        -370 0 -370 0 0 -380 0 -380 373 -2 372 -3 3 -187 2 -188 -150 0 -150 0 0
        -350 0 -350 730 0 730 0 0 350 0 350 -145 0 -144 0 -3 181 c-2 100 0 185 3
        190 3 6 56 8 119 7 l114 -3 315 -543 c245 -422 317 -540 326 -530 7 7 151 253
        320 546 l309 532 123 0 123 0 0 -190 0 -190 -145 0 -145 0 0 -350 0 -350 730
        0 730 0 0 350 0 350 -150 0 -150 0 0 190 0 190 353 2 352 3 0 375 0 375 -350
        5 -350 5 0 180 0 180 117 3 117 3 3 344 c2 190 2 350 0 355 -6 16 -1338 14
        -1353 -2 -6 -7 -145 -249 -308 -538 -282 -498 -299 -525 -326 -525 -26 0 -36
        15 -145 210 -65 116 -201 356 -303 535 l-185 325 -674 3 c-371 1 -676 0 -679
        -2z m1613 -559 c158 -280 288 -511 288 -513 0 -2 -13 -4 -28 -4 -27 0 -42 25
        -303 485 l-274 484 -597 1 -598 0 0 -250 0 -250 120 0 120 0 -2 -232 -3 -233
        -23 0 -23 0 -2 205 -2 205 -120 5 -120 5 -3 290 c-1 159 0 295 3 302 3 11 134
        13 641 11 l637 -3 289 -508z m2309 208 l0 -300 -115 -3 -116 -3 -2 -207 -3
        -207 -25 0 -25 0 -3 233 -2 232 120 0 120 0 0 250 0 250 -597 0 -598 0 -274
        -485 c-232 -412 -277 -485 -295 -485 -13 0 -25 2 -28 5 -4 5 378 689 548 983
        l25 42 635 -2 635 -3 0 -300z m459 -1105 l0 -310 -2410 0 -2410 0 0 310 0 310
        2410 0 2410 0 0 -310z m-4042 -622 l2 -237 -147 -3 -148 -3 -3 -248 -2 -247
        630 0 630 0 -2 247 -3 248 -145 3 -145 3 2 237 2 237 23 0 23 0 3 -212 2 -213
        145 0 145 0 0 -300 0 -300 -680 0 -680 0 0 300 0 300 150 0 150 0 0 216 0 215
        23 -3 22 -3 3 -237z m1380 -205 c141 -243 260 -439 263 -435 4 4 118 198 254
        432 136 234 252 431 257 438 11 12 58 17 58 5 0 -11 -565 -982 -572 -983 -3 0
        -118 192 -254 428 -136 235 -265 455 -285 489 -21 33 -35 64 -31 67 3 4 17 6
        30 4 20 -3 66 -76 280 -445z m1242 207 l0 -239 -142 -3 -143 -3 -3 -248 -2
        -247 630 0 630 0 -2 247 -3 248 -148 3 -147 3 2 237 3 237 23 3 22 3 0 -215 0
        -216 150 0 150 0 0 -300 0 -300 -685 0 -685 0 2 298 3 297 148 3 147 3 0 208
        c0 114 3 211 7 214 3 4 15 7 25 7 17 0 18 -14 18 -240z"/>
        <path d="M1730 1651 c-115 -24 -180 -116 -151 -211 32 -107 174 -156 310 -109
        27 10 31 15 31 50 l0 39 -37 -14 c-60 -22 -85 -26 -126 -16 -58 13 -87 45 -87
        95 0 88 84 118 223 80 26 -7 27 -5 27 27 0 27 -5 37 -23 45 -33 15 -125 23
        -167 14z"/>
        <path d="M3020 1651 c-155 -32 -210 -186 -101 -284 51 -46 130 -64 209 -48 31
        6 66 18 79 27 22 14 24 21 21 82 l-3 67 -70 0 -70 0 0 -30 c0 -25 4 -30 28
        -33 20 -2 27 -8 25 -20 -4 -22 -56 -33 -100 -21 -67 18 -97 68 -74 124 23 54
        54 68 138 62 40 -3 83 -8 96 -12 22 -7 23 -5 20 31 -3 39 -4 39 -58 51 -63 13
        -91 14 -140 4z"/>
        <path d="M760 1508 c-12 -79 -24 -153 -27 -166 -5 -22 -3 -23 43 -20 l48 3 16
        85 15 85 21 -35 c11 -19 33 -56 48 -82 15 -27 31 -48 36 -48 8 0 20 17 75 115
        l29 50 15 -85 16 -85 49 -3 c46 -3 48 -2 43 20 -3 13 -15 87 -28 166 l-22 142
        -41 0 -42 0 -44 -90 c-24 -49 -47 -90 -50 -90 -3 0 -26 41 -50 90 l-44 90 -42
        0 -42 0 -22 -142z"/>
        <path d="M1320 1485 l0 -165 50 0 50 0 0 165 0 165 -50 0 -50 0 0 -165z"/>
        <path d="M2080 1485 l0 -166 47 3 46 3 1 60 1 60 88 3 87 3 0 -66 0 -65 45 0
        45 0 0 165 0 165 -45 0 -45 0 0 -65 0 -66 -87 3 -88 3 -1 60 -1 60 -46 3 -47
        3 0 -166z"/>
        <path d="M2610 1485 l0 -166 48 3 47 3 0 160 0 160 -47 3 -48 3 0 -166z"/>
        <path d="M3481 1608 c-10 -24 -41 -96 -70 -161 -28 -65 -51 -120 -51 -122 0
        -3 20 -5 45 -5 39 0 46 3 60 30 15 30 17 30 96 30 81 0 81 0 92 -30 10 -28 15
        -30 59 -30 26 0 48 3 48 6 0 3 -34 77 -77 165 l-76 159 -54 0 c-54 0 -54 0
        -72 -42z"/>
        <path d="M3900 1645 c0 -3 -1 -76 -1 -162 l0 -158 45 -3 46 -3 0 103 0 103 96
        -102 c90 -97 98 -103 135 -103 l39 0 0 165 0 165 -45 0 -45 0 0 -95 c0 -52 -3
        -95 -7 -94 -5 0 -46 43 -93 94 -81 90 -87 94 -127 94 -24 1 -43 -1 -43 -4z"/>
    </g>
</svg>